<svg xmlns="http://www.w3.org/2000/svg" viewBox="0 0 1142.65 392.48"><title>Signature</title><path fill="white" class="signature" d="M1137.34,146c-21-4-24-6-269-12h-.05c-231.09-10-573.56,31.26-584.68,33a1.28,1.28,0,0,1-.55,0c-59.94-14.36-117,17-120.55,19a1.37,1.37,0,0,1-.38.15c-25.34,5.35-39.42,4.2-44.54,3.4-1.13-.18-7.08-3.32-7.25-4.45-2-13,35.55-53.89,40-61,5-8-1-32-11-26-11.24,6.75-54.53,65.78-70.2,83.13-.36.39-1.19.46-1.61.78C63.34,185,49.27,185.15,45.34,194c-4,9,3,16,4,17s-17,28-19,23c16-109,15-179,13-205C42,11.72,31.4,4.16,24.44,1A11.48,11.48,0,0,0,8.65,8.16c-1.09,3.84-1.39,9.29-.05,17a18.57,18.57,0,0,0,5.09,10C37.73,59.08,9.15,233.64,1.34,260c-6.25,21.08,11.08,24,16.76,24.1a1.66,1.66,0,0,1,1.6,2c-1.15,4.57-4.65,16.21,4.64,20.85,11.76,5.88,15,4,47.05-16.74a1.67,1.67,0,0,1,2.52,1c21.78,84.93,44.54,107.56,70.24,99.8a2.28,2.28,0,0,0,.36-.15C212,353.07,274.58,259.11,288.1,199.1a1.63,1.63,0,0,1,1.36-1.26C431.15,177.86,585.15,151,892.34,156,1200.34,161,1137.34,146,1137.34,146ZM114.53,221.51c-.91,1.68-3.15,3.34-4.53,4.26a2.66,2.66,0,0,1-2.06.42c-2.1-.49-7.6-.26-13.1,12.31-.68.68-1.83-.5-2.49-1.32a1.59,1.59,0,0,1-.3-1.47c1.07-3.77,6.49-19.59,21.31-16.57A1.66,1.66,0,0,1,114.53,221.51ZM131.34,362C119,349.62,89.63,310.46,91.1,274.45A7,7,0,0,1,94,269.08c10.21-7.41,46.64-34.33,56.1-48.08a8,8,0,0,1,3.84-3c21.55-7.87,42.09-8.37,102.75-17.46a2.89,2.89,0,0,1,3.3,3.28c-4.45,27.73-52.09,104.81-119.59,156.86C138.26,362.35,133.34,364,131.34,362Z"/></svg>